# xmcd CD database file
#
# Track frame offsets:
#	150
#	20957
#	41409
#	59988
#	81915
#	105117
#	126216
#	145471
#	167788
#	188133
#	208702
#	228349
#	248911
#
# Disc length: 3637 seconds
#
# Revision: 5
# Processed by: cddbd v1.5PL3 Copyright (c) Steve Scherf et al.
# Submitted via: CDex 1.50Beta7
#
DISCID=bc0e330d
DTITLE=ポルノグラフィティ - ロマンチスト・エゴイスト
DYEAR=2000
DGENRE=Blues
TTITLE0=Jazz up
TTITLE1=Century Lovers
TTITLE2=ヒトリノ夜
TTITLE3=ライオン
TTITLE4=憂色
TTITLE5=Heart Beat
TTITLE6=マシンガントーク
TTITLE7=デッサン#1
TTITLE8=アポロ
TTITLE9=ラビュー・ラビュー
TTITLE10=ジレンマ
TTITLE11=リビドー
TTITLE12=ロマンチスト・エゴイスト
EXTD=\n\n\n YEAR: 2000
EXTT0=
EXTT1=
EXTT2=
EXTT3=
EXTT4=
EXTT5=
EXTT6=
EXTT7=
EXTT8=
EXTT9=
EXTT10=
EXTT11=
EXTT12=
PLAYORDER=
